<?xml version="1.0" encoding="iso-8859-1"?>
<!-- Generator: Adobe Illustrator 19.0.0, SVG Export Plug-In . SVG Version: 6.00 Build 0)  -->
<svg version="1.1" id="Layer_1" xmlns="http://www.w3.org/2000/svg" xmlns:xlink="http://www.w3.org/1999/xlink" x="0px" y="0px"
	 viewBox="0 0 511.998 511.998" style="enable-background:new 0 0 511.998 511.998;" xml:space="preserve">
<g>
	<g>
		<path d="M505.319,21.589c-14.23-14.228-42.996-5.854-90.53,26.358c-40.394,27.375-88.924,68.733-136.648,116.457
			c-47.723,47.725-89.082,96.253-116.457,136.649c-16.571,24.454-26.818,43.929-30.94,59.024
			c-17.969-7.901-39.359-7.341-57.487,3.422c-16.776,9.959-27.742,26.713-30.224,46.097c-0.106,0.501-0.179,1.007-0.218,1.516
			c-0.024,0.204-0.045,0.418-0.063,0.644c-0.009,0.076-0.02,0.151-0.028,0.227c-1.481,13.224-8.913,24.715-20.389,31.528
			c-4.091,2.428-8.48,4.134-13.045,5.067c-4.206,0.861-7.595,3.971-8.813,8.088s-0.066,8.57,2.995,11.581
			c19.315,18.99,44.83,28.842,70.606,28.842c17.664,0,35.451-4.63,51.435-14.119h-0.001c12.197-7.24,22.505-16.736,30.64-28.225
			c0.112-0.158,0.22-0.318,0.323-0.481c12.135-16.914,14.984-38.388,8.228-57.542c15.377-3.708,35.541-14.143,61.152-31.5
			c40.395-27.375,88.924-68.733,136.649-116.457c47.724-47.725,89.082-96.253,116.457-136.649
			C511.172,64.585,519.548,35.819,505.319,21.589z M137.294,441.132c-0.177,0.239-0.343,0.484-0.5,0.735
			c-6.178,8.567-13.962,15.67-23.143,21.12c-24.709,14.669-54.999,14.25-78.912,0.181c17.271-10.471,28.522-27.842,30.991-47.842
			c0.031-0.164,0.059-0.33,0.084-0.496c0.052-0.339,0.091-0.682,0.114-1.025c0.026-0.169,0.049-0.338,0.067-0.509
			c1.38-12.551,8.351-23.417,19.126-29.814c16.317-9.688,36.828-6.28,49.263,7.076c0.16,0.182,0.328,0.36,0.495,0.538
			c1.699,1.894,3.242,3.975,4.588,6.243C147.623,411.077,146.769,428.267,137.294,441.132z M218.307,342.212
			c-42.372,29.541-61.555,33.696-66.383,32.771c-0.926-4.827,3.23-24.011,32.772-66.383c1.788-2.564,3.637-5.165,5.535-7.792
			l35.868,35.868C223.472,338.575,220.872,340.425,218.307,342.212z M244.878,322.589l-40.56-40.56
			c6.68-8.605,13.838-17.449,21.412-26.455l45.603,45.603C262.327,308.751,253.483,315.909,244.878,322.589z M455.949,104.57
			c-26.556,38.09-65.579,83.465-109.878,127.764c-19.049,19.049-38.293,37.116-57.075,53.641l-48.064-48.064
			c16.526-18.781,34.594-38.027,53.642-57.075c44.299-44.3,89.674-83.322,127.764-109.878c42.374-29.543,61.56-33.696,66.383-32.771
			C489.646,43.014,485.49,62.198,455.949,104.57z"/>
	</g>
</g>
<g>
	<g>
		<path d="M120.795,414.549c-5.166-3.804-12.441-2.703-16.246,2.464l-1.96,2.661c-2.678,3.307-5.941,6.114-9.697,8.344
			c-1.526,0.906-3.13,1.694-4.765,2.373c-0.185,0.069-0.371,0.127-0.554,0.204l-3.537,1.513c-5.9,2.523-8.639,9.351-6.115,15.251
			c1.887,4.411,6.177,7.054,10.69,7.054c1.523,0,3.073-0.302,4.563-0.939l2.865-1.225c0.137-0.049,0.275-0.088,0.411-0.143
			c2.856-1.148,5.649-2.529,8.305-4.105c6.236-3.703,11.659-8.405,16.117-13.978c0.096-0.121,0.191-0.244,0.282-0.367l2.107-2.861
			C127.066,425.628,125.963,418.355,120.795,414.549z"/>
	</g>
</g>
<g>
</g>
<g>
</g>
<g>
</g>
<g>
</g>
<g>
</g>
<g>
</g>
<g>
</g>
<g>
</g>
<g>
</g>
<g>
</g>
<g>
</g>
<g>
</g>
<g>
</g>
<g>
</g>
<g>
</g>
</svg>
